<svg version="1.2" xmlns="http://www.w3.org/2000/svg" viewBox="0 0 930 130" width="930" height="130"><defs><clipPath clipPathUnits="userSpaceOnUse" id="cp1"><path d="m0 0h930v130h-930z"/></clipPath></defs><style>.a{fill:#080808}</style><g clip-path="url(#cp1)"><path class="a" d="m109.3 105.6q-13.6 14.9-38.5 14.9-24.9 0-38.7-14.9-13.6-15.1-13.6-40.4 0-25.2 13.6-40.1 13.8-15.1 38.7-15.1 24.9 0 38.5 15.1 13.7 14.9 13.7 40.1 0 25.3-13.7 40.4zm-64.9-9.6q9 10.8 26.4 10.8 17.3 0 26.4-10.8 9.1-10.7 9.1-30.8 0-20-9.1-30.8-9.1-10.7-26.4-10.7-17.4 0-26.4 10.7-9.1 10.8-9.1 30.8 0 20.1 9.1 30.8zm117.6 24.5q-26.4 0-26.4-27.9v-51.5h16v48.6q0 9.1 3.4 13.4 3.7 4.4 11.8 4.4 8.8 0 13.9-6.2 5.3-6.2 5.3-16.7v-43.5h16v77.9h-15.3v-13.4q-7.4 14.9-24.7 14.9zm70.6-38.5v37h-16v-77.9h15.2v18q3-10.2 8.3-14.5 5.4-4.4 14-4.4 3.2 0 7.1 0.9v14l-7.7-0.3q-9.6 0-15.4 7.3-5.5 7.1-5.5 19.9zm151.4-61.8q10 8.8 10 25 0 16.1-10 24.9-10 8.6-27.5 8.6h-29.1v40.3h-16.8v-107.5h45.9q17.5 0 27.5 8.7zm-6.8 25q0-21-23-21h-26.8v41.8h26.8q23 0 23-20.8zm45.4 36.8v37h-16v-77.9h15.2v18q3-10.2 8.3-14.5 5.4-4.4 14-4.4 3.2 0 7.1 0.9v14l-7.7-0.3q-9.6 0-15.4 7.3-5.5 7.1-5.5 19.9zm99.8 27.8q-9.9 10.7-28.4 10.7-18.4 0-28.5-10.7-10-10.9-10-29.8 0-18.8 10-29.6 10.1-10.8 28.5-10.8 18.5 0 28.4 10.8 10.1 10.8 10.1 29.6 0 18.9-10.1 29.8zm-45.1-8.6q5.9 7.1 16.7 7.1 10.9 0 16.6-7.1 5.9-7.1 5.9-21.2 0-13.8-5.9-20.9-5.7-7.3-16.6-7.3-10.8 0-16.7 7.3-5.8 7.1-5.8 20.9 0 14.1 5.8 21.2zm98.2 19.3q-15.9 0-24.9-10.7-9.1-10.7-9.1-29.8 0-19 9.1-29.7 9-10.7 24.9-10.7 18.9 0 25.5 14.8v-42.9h16v107.5h-15.2v-14.3q-7 15.8-26.3 15.8zm-12.2-19.2q5.9 7 16 7 10.1 0 15.8-7 5.9-7.1 5.9-21.3 0-14-5.9-21.1-5.9-7.1-15.8-7.1-10.1 0-16 7.1-5.8 6.9-5.8 21.1 0 14.2 5.8 21.3zm94.7 19.2q-26.5 0-26.5-27.9v-51.5h16.1v48.6q0 9.1 3.4 13.4 3.7 4.4 11.8 4.4 8.8 0 13.9-6.2 5.3-6.2 5.3-16.7v-43.5h16v77.9h-15.3v-13.4q-7.4 14.9-24.7 14.9zm90.3 0q-17.8 0-27.8-10.9-10-10.8-10-29.6 0-18.7 10-29.6 10-10.8 27.8-10.8 17.2 0 26.3 9 9 9.1 9 21.2h-14.8q-2.9-18-20.5-18-10.4 0-16.2 7.3-5.6 7.1-5.6 20.9 0 13.9 5.6 21.2 5.8 7.1 16.2 7.1 18.1 0 20.5-18.6h14.8q0 12.8-9.2 21.9-9.2 8.9-26.1 8.9zm73.9-0.7q-12.3 0-17.2-4.4-4.8-4.6-4.8-16.3v-46.5h-12.7v-11.5h12.7v-23.6h16v23.6h18v11.5h-18v46.9q0 5 2.1 7 2.1 1.8 7.6 1.8l8.3-0.2v10.9q-8 0.8-12 0.8zm54.2 0.7q-17.6 0-25.7-6.8-8.2-6.9-8.2-18.9h15.4q0.6 7.4 4.7 11.2 4.1 3.8 13.9 3.8 17.7 0 17.7-12.5 0-8.8-12-10.5l-14.3-2.1q-12.4-1.6-17.8-6.5-5.5-4.8-5.5-14.5 0-10.8 7.6-17.5 7.7-6.6 24.2-6.6 16.4 0 24 6.6 7.7 6.7 7.7 17.8h-15.4q-0.8-6.5-4.1-10.1-3.3-3.6-12.4-3.6-15.6 0-15.6 12.2 0 4.6 2.5 6.7 2.4 2.1 7.2 2.8l14.4 2.2q12.6 1.8 19 6.9 6.5 5.1 6.5 15.3 0 10.8-8.3 17.5-8.2 6.6-25.5 6.6z"/></g></svg>