<svg width="930" height="130" viewBox="0 0 930 130" fill="none" xmlns="http://www.w3.org/2000/svg">
<g clip-path="url(#clip0_11_2)">
<path d="M100.96 105.76C91.36 116.32 77.76 121.6 60.16 121.6C42.56 121.6 28.9067 116.32 19.2 105.76C9.6 95.0933 4.8 80.8533 4.8 63.04C4.8 45.2267 9.6 31.04 19.2 20.48C28.9067 9.81332 42.56 4.47999 60.16 4.47999C77.76 4.47999 91.36 9.81332 100.96 20.48C110.667 31.04 115.52 45.2267 115.52 63.04C115.52 80.8533 110.667 95.0933 100.96 105.76ZM32.16 95.68C38.56 103.253 47.8933 107.04 60.16 107.04C72.4267 107.04 81.76 103.253 88.16 95.68C94.56 88.1067 97.76 77.2267 97.76 63.04C97.76 48.8533 94.56 37.9733 88.16 30.4C81.76 22.8267 72.4267 19.04 60.16 19.04C47.8933 19.04 38.56 22.8267 32.16 30.4C25.76 37.9733 22.56 48.8533 22.56 63.04C22.56 77.2267 25.76 88.1067 32.16 95.68ZM156.313 121.6C137.646 121.6 128.313 111.733 128.313 92V37.44H145.273V88.96C145.273 95.36 146.499 100.107 148.953 103.2C151.513 106.293 155.673 107.84 161.432 107.84C167.619 107.84 172.526 105.653 176.153 101.28C179.886 96.9067 181.753 90.9867 181.753 83.52V37.44H198.713V120H182.553V105.76C177.326 116.32 168.579 121.6 156.313 121.6ZM231.679 120H214.719V37.44H230.879V56.48C233.012 49.3333 235.945 44.2133 239.679 41.12C243.519 38.0267 248.479 36.48 254.559 36.48C256.799 36.48 259.305 36.8 262.079 37.44V52.32L253.919 52C247.092 52 241.652 54.56 237.599 59.68C233.652 64.6933 231.679 71.7333 231.679 80.8V120ZM355.713 121.6C325.313 121.6 310.113 109.013 310.113 83.84H327.233C328.193 92.3733 330.806 98.56 335.073 102.4C339.339 106.24 346.326 108.16 356.033 108.16C374.379 108.16 383.553 101.227 383.553 87.36C383.553 82.88 381.899 79.2533 378.593 76.48C375.286 73.7067 369.366 71.7333 360.833 70.56L344.993 68.16C333.366 66.4533 325.099 63.36 320.193 58.88C315.393 54.4 312.993 47.7867 312.993 39.04C312.993 28.48 316.619 20.1067 323.873 13.92C331.126 7.62666 341.739 4.47999 355.713 4.47999C369.793 4.47999 380.406 7.67999 387.552 14.08C394.806 20.3733 398.433 29.2267 398.433 40.64H381.793C380.939 32.96 378.379 27.2533 374.113 23.52C369.953 19.7867 363.659 17.92 355.233 17.92C347.019 17.92 340.886 19.7333 336.833 23.36C332.779 26.88 330.753 31.7867 330.753 38.08C330.753 42.56 332.139 46.0267 334.913 48.48C337.793 50.8267 343.073 52.5333 350.753 53.6L366.593 56C378.219 57.6 386.913 60.8 392.673 65.6C398.433 70.4 401.313 77.28 401.313 86.24C401.313 97.3333 397.473 106.027 389.792 112.32C382.113 118.507 370.753 121.6 355.713 121.6ZM451.694 121.6C438.68 121.6 428.6 117.813 421.454 110.24C414.414 102.56 410.894 92.0533 410.894 78.72C410.894 65.7067 414.307 55.3067 421.134 47.52C428.067 39.7333 437.934 35.84 450.734 35.84C463.427 35.84 473.24 39.68 480.174 47.36C487.107 55.04 490.574 65.0133 490.574 77.28C490.574 78.24 490.467 79.7867 490.254 81.92H427.854C428.067 91.4133 430.254 98.4533 434.414 103.04C438.68 107.627 444.44 109.92 451.694 109.92C457.454 109.92 462.147 108.533 465.774 105.76C469.507 102.987 472.014 99.2 473.294 94.4H488.814C486.894 103.04 482.84 109.76 476.654 114.56C470.467 119.253 462.147 121.6 451.694 121.6ZM466.414 53.44C462.467 49.4933 457.24 47.52 450.734 47.52C444.227 47.52 439 49.4933 435.054 53.44C431.107 57.28 428.707 63.04 427.854 70.72H473.614C472.76 63.04 470.36 57.28 466.414 53.44ZM520.273 120H503.313V37.44H519.473V56.48C521.606 49.3333 524.539 44.2133 528.273 41.12C532.113 38.0267 537.073 36.48 543.153 36.48C545.393 36.48 547.899 36.8 550.673 37.44V52.32L542.513 52C535.686 52 530.246 54.56 526.193 59.68C522.246 64.6933 520.273 71.7333 520.273 80.8V120ZM607.346 120H586.866L555.506 37.44H573.106L597.106 104.96L620.946 37.44H638.706L607.346 120ZM665.273 120H648.313V37.44H665.273V120ZM656.793 23.04C653.593 23.04 651.086 22.24 649.273 20.64C647.566 18.9333 646.713 16.7467 646.713 14.08C646.713 11.4133 647.566 9.22666 649.273 7.52C651.086 5.81333 653.593 4.95999 656.793 4.95999C659.886 4.95999 662.339 5.81333 664.153 7.52C665.966 9.22666 666.873 11.4133 666.873 14.08C666.873 16.7467 665.966 18.9333 664.153 20.64C662.339 22.24 659.886 23.04 656.793 23.04ZM718.081 121.6C705.495 121.6 695.681 117.76 688.641 110.08C681.601 102.4 678.081 91.9467 678.081 78.72C678.081 65.4933 681.601 55.04 688.641 47.36C695.681 39.68 705.495 35.84 718.081 35.84C730.241 35.84 739.521 39.04 745.921 45.44C752.321 51.84 755.521 59.3067 755.521 67.84H739.841C737.815 55.1467 730.561 48.8 718.081 48.8C710.721 48.8 705.015 51.36 700.961 56.48C697.015 61.4933 695.041 68.9067 695.041 78.72C695.041 88.5333 697.015 96 700.961 101.12C705.015 106.133 710.721 108.64 718.081 108.64C730.881 108.64 738.135 102.08 739.841 88.96H755.521C755.521 98.0267 752.268 105.76 745.761 112.16C739.255 118.453 730.028 121.6 718.081 121.6ZM804.35 121.6C791.337 121.6 781.257 117.813 774.11 110.24C767.07 102.56 763.55 92.0533 763.55 78.72C763.55 65.7067 766.963 55.3067 773.79 47.52C780.723 39.7333 790.59 35.84 803.39 35.84C816.083 35.84 825.897 39.68 832.83 47.36C839.763 55.04 843.23 65.0133 843.23 77.28C843.23 78.24 843.123 79.7867 842.91 81.92H780.51C780.723 91.4133 782.91 98.4533 787.07 103.04C791.337 107.627 797.097 109.92 804.35 109.92C810.11 109.92 814.803 108.533 818.43 105.76C822.163 102.987 824.67 99.2 825.95 94.4H841.47C839.55 103.04 835.497 109.76 829.31 114.56C823.123 119.253 814.803 121.6 804.35 121.6ZM819.07 53.44C815.123 49.4933 809.897 47.52 803.39 47.52C796.883 47.52 791.657 49.4933 787.71 53.44C783.763 57.28 781.363 63.04 780.51 70.72H826.27C825.417 63.04 823.017 57.28 819.07 53.44ZM888.609 121.6C876.235 121.6 867.169 119.2 861.409 114.4C855.649 109.493 852.769 102.827 852.769 94.4H869.089C869.515 99.6267 871.169 103.573 874.049 106.24C876.929 108.907 881.835 110.24 888.769 110.24C901.249 110.24 907.489 105.813 907.489 96.96C907.489 90.7733 903.275 87.0933 894.849 85.92L879.649 83.68C870.902 82.5067 864.609 80.2133 860.769 76.8C856.929 73.3867 855.009 68.2667 855.009 61.44C855.009 53.76 857.675 47.5733 863.009 42.88C868.449 38.1867 876.982 35.84 888.609 35.84C900.235 35.84 908.715 38.1867 914.049 42.88C919.489 47.5733 922.209 53.8667 922.209 61.76H905.889C905.355 57.1733 903.915 53.6 901.569 51.04C899.222 48.48 894.849 47.2 888.449 47.2C877.462 47.2 871.969 51.52 871.969 60.16C871.969 63.36 872.822 65.7067 874.529 67.2C876.235 68.6933 878.795 69.7067 882.209 70.24L897.409 72.48C906.369 73.76 913.089 76.2133 917.569 79.84C922.155 83.4667 924.449 88.8533 924.449 96C924.449 103.68 921.515 109.867 915.649 114.56C909.889 119.253 900.875 121.6 888.609 121.6Z" fill="black"/>
</g>
<defs>
<clipPath id="clip0_11_2">
<rect width="930" height="130" fill="white"/>
</clipPath>
</defs>
</svg>
