<svg width="256" height="256" viewBox="0 0 256 256" fill="none" xmlns="http://www.w3.org/2000/svg">
<rect width="256" height="256" rx="16" fill="#050505"/>
<path d="M131 201C93 201 74 185.267 74 153.8H95.4C96.6 164.467 99.8667 172.2 105.2 177C110.533 181.8 119.267 184.2 131.4 184.2C154.333 184.2 165.8 175.533 165.8 158.2C165.8 152.6 163.733 148.067 159.6 144.6C155.467 141.133 148.067 138.667 137.4 137.2L117.6 134.2C103.067 132.067 92.7333 128.2 86.6 122.6C80.6 117 77.6 108.733 77.6 97.8C77.6 84.6 82.1333 74.1333 91.2 66.4C100.267 58.5333 113.533 54.6 131 54.6C148.6 54.6 161.867 58.6 170.8 66.6C179.867 74.4667 184.4 85.5333 184.4 99.8H163.6C162.533 90.2 159.333 83.0667 154 78.4C148.8 73.7333 140.933 71.4 130.4 71.4C120.133 71.4 112.467 73.6667 107.4 78.2C102.333 82.6 99.8 88.7333 99.8 96.6C99.8 102.2 101.533 106.533 105 109.6C108.6 112.533 115.2 114.667 124.8 116L144.6 119C159.133 121 170 125 177.2 131C184.4 137 188 145.6 188 156.8C188 170.667 183.2 181.533 173.6 189.4C164 197.133 149.8 201 131 201Z" fill="#FAFAFA"/>
</svg>
