<svg width="32" height="32" viewBox="0 0 32 32" fill="none" xmlns="http://www.w3.org/2000/svg">
<g clip-path="url(#clip0_40_32)">
<rect width="32" height="32" rx="6" fill="#050505"/>
<path d="M15.604 23.26C13.5933 23.26 12.12 22.87 11.184 22.09C10.248 21.2927 9.78 20.2093 9.78 18.84H12.432C12.5013 19.6893 12.77 20.3307 13.238 20.764C13.706 21.1973 14.5033 21.414 15.63 21.414C17.658 21.414 18.672 20.6947 18.672 19.256C18.672 18.2507 17.9873 17.6527 16.618 17.462L14.148 17.098C12.7267 16.9073 11.704 16.5347 11.08 15.98C10.456 15.4253 10.144 14.5933 10.144 13.484C10.144 12.236 10.5773 11.2307 11.444 10.468C12.328 9.70533 13.7147 9.324 15.604 9.324C17.4933 9.324 18.8713 9.70533 19.738 10.468C20.622 11.2307 21.064 12.2533 21.064 13.536H18.412C18.3253 12.7907 18.0913 12.21 17.71 11.794C17.3287 11.378 16.618 11.17 15.578 11.17C13.7927 11.17 12.9 11.872 12.9 13.276C12.9 13.796 13.0387 14.1773 13.316 14.42C13.5933 14.6627 14.0093 14.8273 14.564 14.914L17.034 15.278C18.49 15.486 19.582 15.8847 20.31 16.474C21.0553 17.0633 21.428 17.9387 21.428 19.1C21.428 20.348 20.9513 21.3533 19.998 22.116C19.062 22.8787 17.5973 23.26 15.604 23.26Z" fill="#FAFAFA"/>
</g>
<defs>
<clipPath id="clip0_40_32">
<rect width="32" height="32" rx="6" fill="white"/>
</clipPath>
</defs>
</svg>
