<svg width="204" height="44" viewBox="0 0 204 44" fill="none" xmlns="http://www.w3.org/2000/svg">
<g clip-path="url(#clip0_40_24)">
<path d="M17.334 42.54C6.642 42.54 1.458 37.842 1.458 29.634H8.586C9.18 34.71 11.502 37.032 17.496 37.032C23.328 37.032 25.866 34.548 25.866 30.984C25.866 28.338 24.408 26.61 18.522 25.746L13.608 25.044C5.562 23.91 2.43 21.102 2.43 14.838C2.43 7.926 7.344 3.012 17.334 3.012C27.324 3.012 32.238 7.872 32.238 15.378H25.272C24.786 10.842 22.302 8.52 17.172 8.52C12.042 8.52 9.774 10.896 9.774 14.406C9.774 17.052 11.016 18.402 16.146 19.104L21.06 19.806C28.89 20.94 33.21 23.91 33.21 30.552C33.21 37.734 28.026 42.54 17.334 42.54ZM47.9845 42.27C41.6665 42.27 39.5605 40.326 39.5605 34.17V19.104H35.1865V14.136H39.5605V5.712H46.5265V14.136H52.5745V19.104H46.5265V34.44C46.5265 36.6 47.4445 37.356 49.6585 37.356L52.5745 37.302V42C51.4405 42.108 49.2265 42.27 47.9845 42.27ZM65.502 42.54C58.968 42.54 55.458 39.246 55.458 34.116C55.458 29.85 57.996 26.448 65.016 25.908L70.686 25.422C73.494 25.152 74.304 24.396 74.304 22.938C74.304 20.184 72.63 18.564 69.174 18.564C65.934 18.564 64.152 19.968 63.882 22.938H56.97C56.97 17.268 60.534 13.596 69.12 13.596C77.706 13.596 81.27 17.268 81.27 22.938V34.872C81.27 38.652 81.594 41.082 82.134 42H75.816C75.006 40.974 74.628 39.84 74.628 37.68C73.062 40.866 70.254 42.54 65.502 42.54ZM67.554 37.788C71.874 37.788 74.304 34.494 74.304 30.444V28.5C73.818 29.094 72.522 29.418 70.632 29.58L67.338 29.85C63.828 30.174 62.424 31.632 62.424 33.63C62.424 36.114 63.99 37.788 67.554 37.788ZM93.2989 42H86.3329V14.136H92.9749V20.346C94.4329 15.432 96.8629 13.758 100.751 13.758C101.507 13.758 102.641 13.974 103.289 14.136V20.238L100.427 20.184C96.1609 20.184 93.2989 23.37 93.2989 29.04V42ZM117.699 42.27C111.381 42.27 109.275 40.326 109.275 34.17V19.104H104.901V14.136H109.275V5.712H116.241V14.136H122.289V19.104H116.241V34.44C116.241 36.6 117.159 37.356 119.373 37.356L122.289 37.302V42C121.155 42.108 118.941 42.27 117.699 42.27ZM137.809 42.54C128.845 42.54 125.173 38.706 125.173 33.198H131.923C132.247 36.168 133.597 37.95 137.917 37.95C142.075 37.95 143.533 36.222 143.533 34.17C143.533 32.28 142.021 31.308 139.645 30.93L134.839 30.228C128.413 29.31 125.929 27.15 125.929 22.398C125.929 17.43 129.331 13.596 137.809 13.596C146.341 13.596 149.743 17.43 149.743 22.506H142.993C142.723 20.184 141.859 18.186 137.755 18.186C134.245 18.186 132.895 19.644 132.895 21.858C132.895 23.694 133.975 24.504 135.973 24.774L140.725 25.476C146.881 26.34 150.499 28.392 150.499 33.738C150.499 38.706 146.827 42.54 137.809 42.54ZM167.586 42.54C158.514 42.54 153.438 36.87 153.438 28.068C153.438 19.32 158.514 13.596 167.586 13.596C176.712 13.596 181.788 19.32 181.788 28.068C181.788 36.87 176.712 42.54 167.586 42.54ZM167.586 37.248C172.23 37.248 174.822 34.224 174.822 28.068C174.822 21.912 172.23 18.888 167.586 18.888C162.996 18.888 160.404 21.912 160.404 28.068C160.404 34.224 162.996 37.248 167.586 37.248Z" fill="#FAFAFA"/>
<path d="M192.08 20.2C187.48 20.2 184.54 17.22 184.54 12.88C184.54 8.54 187.48 5.56 192.08 5.56C196.68 5.56 199.64 8.54 199.64 12.88C199.64 17.22 196.68 20.2 192.08 20.2ZM192.08 18.64C195.7 18.64 197.9 16.28 197.9 12.88C197.9 9.48 195.7 7.12 192.08 7.12C188.48 7.12 186.28 9.48 186.28 12.88C186.28 16.28 188.48 18.64 192.08 18.64ZM192.18 16.64C189.88 16.64 188.56 15.16 188.56 12.88C188.56 10.6 189.88 9.12 192.18 9.12C194.54 9.12 195.6 10.58 195.6 12H193.86C193.74 11.18 193.24 10.54 192.18 10.54C191.08 10.54 190.42 11.32 190.42 12.88C190.42 14.44 191.08 15.22 192.18 15.22C193.1 15.22 193.7 14.74 193.86 13.7H195.6C195.6 15.26 194.46 16.64 192.18 16.64Z" fill="white"/>
</g>
<defs>
<clipPath id="clip0_40_24">
<rect width="204" height="44" fill="white"/>
</clipPath>
</defs>
</svg>
